<?xml version="1.0"?>
<svg version="1.1" xmlns="http://www.w3.org/2000/svg" xmlns:xlink="http://www.w3.org/1999/xlink" width="640" height="200">
    <desc iVinci="yes" version="4.6" gridStep="20" showGrid="no" snapToGrid="no" codePlatform="0"/>
    <g id="Layer1" name="Layer 1" opacity="1">
        <g id="Shape1">
            <desc shapeID="1" type="0" basicInfo-basicType="0" basicInfo-roundedRectRadius="12" basicInfo-polygonSides="6" basicInfo-starPoints="5" bounding="rect(-130.77,-75.7502,261.54,151.5)" text="" font-familyName="Fira Mono" font-pixelSize="60" font-bold="0" font-underline="0" font-alignment="1" strokeStyle="0" markerStart="0" markerEnd="0" shadowEnabled="0" shadowOffsetX="0" shadowOffsetY="2" shadowBlur="4" shadowOpacity="160" blurEnabled="0" blurRadius="4" transform="matrix(1,0,0,1,320,104.186)" pers-center="0,0" pers-size="0,0" pers-start="0,0" pers-end="0,0" locked="0" mesh="" flag=""/>
            <path id="shapePath1" d="M320.001,28.4354 L344.831,119.847 L450.77,179.936 L320,148.613 L189.23,179.935 L295.171,119.846 L320.001,28.4354 Z" style="stroke:none;fill-rule:evenodd;fill:#640000;fill-opacity:1;"/>
        </g>
        <g id="Shape2">
            <desc shapeID="2" type="2" basicInfo-basicType="0" basicInfo-roundedRectRadius="12" basicInfo-polygonSides="6" basicInfo-starPoints="5" bounding="rect(-320,-100,640,200)" text="Pasquale Citera" font-familyName="Fira Mono" font-pixelSize="60" font-bold="0" font-underline="0" font-alignment="1" strokeStyle="0" markerStart="0" markerEnd="0" shadowEnabled="0" shadowOffsetX="0" shadowOffsetY="2" shadowBlur="4" shadowOpacity="160" blurEnabled="0" blurRadius="4" transform="matrix(1,0,0,1,318.89,100)" pers-center="0,0" pers-size="0,0" pers-start="0,0" pers-end="0,0" locked="0" mesh="" flag=""/>
            <path id="shapePath2" d="M78.05,102.476 C75.21,104.596 71.31,105.656 66.35,105.656 L61.01,105.656 L61.01,121.016 L55.91,121.016 L55.91,79.7356 L66.35,79.7356 C71.39,79.7356 75.31,80.7956 78.11,82.9156 C80.91,85.0356 82.31,88.1956 82.31,92.3956 C82.31,96.9956 80.89,100.356 78.05,102.476 M67.01,83.8156 L61.01,83.8156 L61.01,101.516 L66.83,101.516 C69.99,101.516 72.44,100.836 74.18,99.4756 C75.92,98.1156 76.79,95.7756 76.79,92.4556 C76.79,86.6956 73.53,83.8156 67.01,83.8156 M114.11,116.876 C114.51,117.476 115.17,117.916 116.09,118.196 L114.89,121.736 C111.89,121.336 109.97,119.836 109.13,117.236 C108.01,118.676 106.6,119.776 104.9,120.536 C103.2,121.296 101.31,121.676 99.23,121.676 C96.07,121.676 93.58,120.796 91.76,119.036 C89.94,117.276 89.03,114.916 89.03,111.956 C89.03,108.716 90.3,106.216 92.84,104.456 C95.38,102.696 99.05,101.816 103.85,101.816 L108.47,101.816 L108.47,99.1756 C108.47,96.9756 107.83,95.3856 106.55,94.4056 C105.27,93.4256 103.41,92.9356 100.97,92.9356 C98.45,92.9356 95.71,93.4556 92.75,94.4956 L91.43,90.7756 C95.07,89.4156 98.49,88.7356 101.69,88.7356 C105.53,88.7356 108.46,89.6356 110.48,91.4356 C112.5,93.2356 113.51,95.7356 113.51,98.9356 L113.51,114.176 C113.51,115.376 113.71,116.276 114.11,116.876 M104.96,116.726 C106.38,115.946 107.55,114.836 108.47,113.396 L108.47,105.236 L103.91,105.236 C100.55,105.236 98.12,105.806 96.62,106.946 C95.12,108.086 94.37,109.736 94.37,111.896 C94.37,115.896 96.41,117.896 100.49,117.896 C102.05,117.896 103.54,117.506 104.96,116.726 M143.42,116.216 C144.84,115.296 145.55,114.076 145.55,112.556 C145.55,111.516 145.37,110.656 145.01,109.976 C144.65,109.296 143.92,108.676 142.82,108.116 C141.72,107.556 140.09,106.996 137.93,106.436 C134.25,105.516 131.53,104.416 129.77,103.136 C128.01,101.856 127.13,99.9356 127.13,97.3756 C127.13,94.7356 128.23,92.6356 130.43,91.0756 C132.63,89.5156 135.51,88.7356 139.07,88.7356 C143.55,88.7356 147.37,89.9156 150.53,92.2756 L148.31,95.6356 C146.99,94.7156 145.62,94.0156 144.2,93.5356 C142.78,93.0556 141.11,92.8156 139.19,92.8156 C136.79,92.8156 135.04,93.1856 133.94,93.9256 C132.84,94.6656 132.29,95.6756 132.29,96.9556 C132.29,97.9156 132.54,98.6956 133.04,99.2956 C133.54,99.8956 134.37,100.426 135.53,100.886 C136.69,101.346 138.41,101.896 140.69,102.536 C144.13,103.456 146.7,104.626 148.4,106.046 C150.1,107.466 150.95,109.556 150.95,112.316 C150.95,115.476 149.67,117.826 147.11,119.366 C144.55,120.906 141.39,121.676 137.63,121.676 C132.71,121.676 128.61,120.256 125.33,117.416 L128.15,114.176 C129.43,115.216 130.89,116.046 132.53,116.666 C134.17,117.286 135.89,117.596 137.69,117.596 C140.09,117.596 142,117.136 143.42,116.216 M182.15,92.8756 L182.57,89.4556 L186.83,89.4556 L186.83,133.736 L181.85,133.136 L181.85,116.996 C179.61,120.116 176.65,121.676 172.97,121.676 C165.21,121.676 161.33,116.216 161.33,105.296 C161.33,100.376 162.38,96.3856 164.48,93.3256 C166.58,90.2656 169.53,88.7356 173.33,88.7356 C177.01,88.7356 179.95,90.1156 182.15,92.8756 M166.67,105.236 C166.67,113.436 169.11,117.536 173.99,117.536 C175.63,117.536 177.12,117.086 178.46,116.186 C179.8,115.286 180.93,114.116 181.85,112.676 L181.85,96.8356 C181.05,95.5556 180.01,94.5556 178.73,93.8356 C177.45,93.1156 176.07,92.7556 174.59,92.7556 C169.31,92.7556 166.67,96.9156 166.67,105.236 M205.22,116.306 C206.08,117.246 207.43,117.716 209.27,117.716 C210.95,117.716 212.58,117.226 214.16,116.246 C215.74,115.266 216.97,114.076 217.85,112.676 L217.85,89.4556 L222.83,89.4556 L222.83,121.016 L218.57,121.016 L218.15,116.756 C216.95,118.316 215.44,119.526 213.62,120.386 C211.8,121.246 209.95,121.676 208.07,121.676 C205.07,121.676 202.8,120.876 201.26,119.276 C199.72,117.676 198.95,115.396 198.95,112.436 L198.95,89.4556 L203.93,89.4556 L203.93,111.836 C203.93,113.876 204.36,115.366 205.22,116.306 M258.11,116.876 C258.51,117.476 259.17,117.916 260.09,118.196 L258.89,121.736 C255.89,121.336 253.97,119.836 253.13,117.236 C252.01,118.676 250.6,119.776 248.9,120.536 C247.2,121.296 245.31,121.676 243.23,121.676 C240.07,121.676 237.58,120.796 235.76,119.036 C233.94,117.276 233.03,114.916 233.03,111.956 C233.03,108.716 234.3,106.216 236.84,104.456 C239.38,102.696 243.05,101.816 247.85,101.816 L252.47,101.816 L252.47,99.1756 C252.47,96.9756 251.83,95.3856 250.55,94.4056 C249.27,93.4256 247.41,92.9356 244.97,92.9356 C242.45,92.9356 239.71,93.4556 236.75,94.4956 L235.43,90.7756 C239.07,89.4156 242.49,88.7356 245.69,88.7356 C249.53,88.7356 252.46,89.6356 254.48,91.4356 C256.5,93.2356 257.51,95.7356 257.51,98.9356 L257.51,114.176 C257.51,115.376 257.71,116.276 258.11,116.876 M248.96,116.726 C250.38,115.946 251.55,114.836 252.47,113.396 L252.47,105.236 L247.91,105.236 C244.55,105.236 242.12,105.806 240.62,106.946 C239.12,108.086 238.37,109.736 238.37,111.896 C238.37,115.896 240.41,117.896 244.49,117.896 C246.05,117.896 247.54,117.506 248.96,116.726 M288.41,117.536 C290.09,117.536 291.87,117.176 293.75,116.456 L295.07,120.056 C293.07,121.136 290.57,121.676 287.57,121.676 C284.77,121.676 282.51,120.896 280.79,119.336 C279.07,117.776 278.21,115.656 278.21,112.976 L278.21,80.6356 L268.49,80.6356 L268.49,76.6756 L283.19,76.6756 L283.19,113.276 C283.19,116.116 284.93,117.536 288.41,117.536 M313.61,114.896 C315.33,116.656 317.49,117.536 320.09,117.536 C323.29,117.536 326.11,116.556 328.55,114.596 L330.89,118.016 C329.41,119.176 327.72,120.076 325.82,120.716 C323.92,121.356 322.01,121.676 320.09,121.676 C315.53,121.676 311.98,120.186 309.44,117.206 C306.9,114.226 305.63,110.236 305.63,105.236 C305.63,102.076 306.19,99.2456 307.31,96.7456 C308.43,94.2456 310.02,92.2856 312.08,90.8656 C314.14,89.4456 316.51,88.7356 319.19,88.7356 C323.27,88.7356 326.46,90.1256 328.76,92.9056 C331.06,95.6856 332.21,99.4756 332.21,104.276 C332.21,105.196 332.17,106.096 332.09,106.976 L310.85,106.976 C310.97,110.496 311.89,113.136 313.61,114.896 M313.43,95.4856 C311.91,97.2256 311.05,99.7756 310.85,103.136 L327.41,103.136 C327.37,99.7756 326.63,97.2256 325.19,95.4856 C323.75,93.7456 321.77,92.8756 319.25,92.8756 C316.89,92.8756 314.95,93.7456 313.43,95.4856 M401,80.0056 C402.82,80.6656 404.59,81.6756 406.31,83.0356 L403.43,86.3956 C400.95,84.3556 398.05,83.3356 394.73,83.3356 C390.97,83.3356 387.92,84.6856 385.58,87.3856 C383.24,90.0856 382.07,94.3956 382.07,100.316 C382.07,106.156 383.22,110.446 385.52,113.186 C387.82,115.926 390.87,117.296 394.67,117.296 C396.75,117.296 398.54,116.986 400.04,116.366 C401.54,115.746 402.95,114.896 404.27,113.816 L406.91,117.236 C405.55,118.556 403.85,119.626 401.81,120.446 C399.77,121.266 397.37,121.676 394.61,121.676 C391.21,121.676 388.16,120.846 385.46,119.186 C382.76,117.526 380.63,115.096 379.07,111.896 C377.51,108.696 376.73,104.836 376.73,100.316 C376.73,95.8356 377.52,91.9856 379.1,88.7656 C380.68,85.5456 382.81,83.1156 385.49,81.4756 C388.17,79.8356 391.13,79.0156 394.37,79.0156 C396.97,79.0156 399.18,79.3456 401,80.0056 M429.53,75.6556 C430.21,76.3356 430.55,77.1756 430.55,78.1756 C430.55,79.2156 430.21,80.0656 429.53,80.7256 C428.85,81.3856 427.97,81.7156 426.89,81.7156 C425.85,81.7156 424.99,81.3856 424.31,80.7256 C423.63,80.0656 423.29,79.2156 423.29,78.1756 C423.29,77.1756 423.63,76.3356 424.31,75.6556 C424.99,74.9756 425.85,74.6356 426.89,74.6356 C427.97,74.6356 428.85,74.9756 429.53,75.6556 M439.79,117.056 L439.79,121.016 L416.15,121.016 L416.15,117.056 L425.93,117.056 L425.93,93.3556 L416.45,93.3556 L416.45,89.4556 L430.91,89.4556 L430.91,117.056 L439.79,117.056 M472.04,121.076 C470.5,121.476 468.99,121.676 467.51,121.676 C464.19,121.676 461.6,120.806 459.74,119.066 C457.88,117.326 456.95,115.036 456.95,112.196 L456.95,93.2956 L449.69,93.2956 L449.69,89.4556 L456.95,89.4556 L456.95,82.2556 L461.93,81.6556 L461.93,89.4556 L472.85,89.4556 L472.25,93.2956 L461.93,93.2956 L461.93,112.136 C461.93,113.936 462.41,115.286 463.37,116.186 C464.33,117.086 465.87,117.536 467.99,117.536 C470.11,117.536 472.13,117.036 474.05,116.036 L475.97,119.456 C474.89,120.136 473.58,120.676 472.04,121.076 M493.61,114.896 C495.33,116.656 497.49,117.536 500.09,117.536 C503.29,117.536 506.11,116.556 508.55,114.596 L510.89,118.016 C509.41,119.176 507.72,120.076 505.82,120.716 C503.92,121.356 502.01,121.676 500.09,121.676 C495.53,121.676 491.98,120.186 489.44,117.206 C486.9,114.226 485.63,110.236 485.63,105.236 C485.63,102.076 486.19,99.2456 487.31,96.7456 C488.43,94.2456 490.02,92.2856 492.08,90.8656 C494.14,89.4456 496.51,88.7356 499.19,88.7356 C503.27,88.7356 506.46,90.1256 508.76,92.9056 C511.06,95.6856 512.21,99.4756 512.21,104.276 C512.21,105.196 512.17,106.096 512.09,106.976 L490.85,106.976 C490.97,110.496 491.89,113.136 493.61,114.896 M493.43,95.4856 C491.91,97.2256 491.05,99.7756 490.85,103.136 L507.41,103.136 C507.37,99.7756 506.63,97.2256 505.19,95.4856 C503.75,93.7456 501.77,92.8756 499.25,92.8756 C496.89,92.8756 494.95,93.7456 493.43,95.4856 M522.53,117.056 L529.91,117.056 L529.91,93.3556 L522.53,93.3556 L522.53,89.4556 L534.23,89.4556 L534.83,95.5156 C535.75,93.3156 537.01,91.6356 538.61,90.4756 C540.21,89.3156 541.99,88.7356 543.95,88.7356 C545.39,88.7356 546.77,88.8956 548.09,89.2156 L547.19,94.1356 C545.83,93.7756 544.61,93.5956 543.53,93.5956 C541.49,93.5956 539.68,94.4356 538.1,96.1156 C536.52,97.7956 535.45,99.7956 534.89,102.116 L534.89,117.056 L543.77,117.056 L543.77,121.016 L522.53,121.016 L522.53,117.056 M582.11,116.876 C582.51,117.476 583.17,117.916 584.09,118.196 L582.89,121.736 C579.89,121.336 577.97,119.836 577.13,117.236 C576.01,118.676 574.6,119.776 572.9,120.536 C571.2,121.296 569.31,121.676 567.23,121.676 C564.07,121.676 561.58,120.796 559.76,119.036 C557.94,117.276 557.03,114.916 557.03,111.956 C557.03,108.716 558.3,106.216 560.84,104.456 C563.38,102.696 567.05,101.816 571.85,101.816 L576.47,101.816 L576.47,99.1756 C576.47,96.9756 575.83,95.3856 574.55,94.4056 C573.27,93.4256 571.41,92.9356 568.97,92.9356 C566.45,92.9356 563.71,93.4556 560.75,94.4956 L559.43,90.7756 C563.07,89.4156 566.49,88.7356 569.69,88.7356 C573.53,88.7356 576.46,89.6356 578.48,91.4356 C580.5,93.2356 581.51,95.7356 581.51,98.9356 L581.51,114.176 C581.51,115.376 581.71,116.276 582.11,116.876 M572.96,116.726 C574.38,115.946 575.55,114.836 576.47,113.396 L576.47,105.236 L571.91,105.236 C568.55,105.236 566.12,105.806 564.62,106.946 C563.12,108.086 562.37,109.736 562.37,111.896 C562.37,115.896 564.41,117.896 568.49,117.896 C570.05,117.896 571.54,117.506 572.96,116.726 Z" style="stroke:none;fill-rule:nonzero;fill:#000000;fill-opacity:1;"/>
        </g>
    </g>
</svg>
